<svg id="图层_1" data-name="图层 1" xmlns="http://www.w3.org/2000/svg" viewBox="0 0 544.31 108.49">
    <defs>
        <style>
            .cls-1 {
                fill: #1D2129;
            }
        </style>
    </defs>
    <title>开发者社区</title>
    <rect class="cls-1" x="377.61" y="28.78" width="55.65" height="13.32" rx="1.23" />
    <rect class="cls-1" x="375.3" y="91.5" width="60.26" height="13.32" rx="1.23" />
    <path class="cls-1"
        d="M398.66,2.14h13.56a0,0,0,0,1,0,0V103.58a1.23,1.23,0,0,1-1.23,1.23h-11.1a1.23,1.23,0,0,1-1.23-1.23V2.14a0,0,0,0,1,0,0Z"
        transform="translate(810.87 106.96) rotate(180)" />
    <path class="cls-1"
        d="M352.46,1h9a0,0,0,0,1,0,0V13.53a0,0,0,0,1,0,0h-9a1.23,1.23,0,0,1-1.23-1.23V2.18A1.23,1.23,0,0,1,352.46,1Z"
        transform="translate(363.56 -349.08) rotate(90)" />
    <path class="cls-1"
        d="M326.72,69.07h61.2a1.33,1.33,0,0,1,1.33,1.33v9.91a1.33,1.33,0,0,1-1.33,1.33h-61.2a0,0,0,0,1,0,0V69.07a0,0,0,0,1,0,0Z"
        transform="translate(433.35 -282.63) rotate(90)" />
    <path class="cls-1"
        d="M340.92,10.1h34.13a1.23,1.23,0,0,1,1.23,1.23V22.19a0,0,0,0,1,0,0H340.92A1.23,1.23,0,0,1,339.69,21V11.34A1.23,1.23,0,0,1,340.92,10.1Z" />
    <path class="cls-1"
        d="M374.88,65.78,358,59.36v-13l17.77,6.76a1.24,1.24,0,0,1,.79,1.15V64.63A1.23,1.23,0,0,1,374.88,65.78Z" />
    <path class="cls-1"
        d="M376.22,22.19c-.07.38-10.2,31.08-37.47,44.92a.62.62,0,0,1-.89-.55V54.43a1.18,1.18,0,0,1,.48-1C358,39.81,364.2,19.82,364.28,19.37Z" />
    <rect class="cls-1" x="64.31" y="15.42" width="13.26" height="92.25" rx="1.2" />
    <path class="cls-1"
        d="M90.61,17.89H3.83a1.26,1.26,0,0,1-1.27-1.24V5.8A1.25,1.25,0,0,1,3.83,4.57H90.61A1.25,1.25,0,0,1,91.88,5.8V16.65A1.26,1.26,0,0,1,90.61,17.89Z" />
    <rect class="cls-1" y="48.47" width="94.44" height="13.32" rx="1.23" />
    <path class="cls-1"
        d="M21.21,14.31V51.59c0,6,0,16.13-3.21,25.25C15.23,84.7,10.65,90.35,4.07,94A1.25,1.25,0,0,0,3.43,95v12.22a1.24,1.24,0,0,0,1.68,1.15A43.07,43.07,0,0,0,20.75,98.09a46.12,46.12,0,0,0,10-16.74c4-11.31,4-22.86,4-29.76V14.31Z" />
    <path class="cls-1"
        d="M543.1,18.91H455.58V7a1.22,1.22,0,0,1,1.22-1.22h86.3A1.21,1.21,0,0,1,544.31,7V17.7A1.21,1.21,0,0,1,543.1,18.91Z" />
    <path class="cls-1"
        d="M543.1,106.63H456.8a1.22,1.22,0,0,1-1.22-1.22V93.47H543.1a1.22,1.22,0,0,1,1.21,1.22v10.72A1.22,1.22,0,0,1,543.1,106.63Z" />
    <path class="cls-1"
        d="M455.58,7.24h12.18A1.22,1.22,0,0,1,469,8.46v97a1.22,1.22,0,0,1-1.22,1.22H455.58a0,0,0,0,1,0,0V7.24A0,0,0,0,1,455.58,7.24Z"
        transform="translate(924.57 113.87) rotate(180)" />
    <path class="cls-1"
        d="M523.72,26.29a1.22,1.22,0,0,0-1.11.72,100.7,100.7,0,0,1-8.74,15.6A98,98,0,0,1,496,62.42,92.57,92.57,0,0,1,474.4,76a1.25,1.25,0,0,0-.72,1.12V89.81a.61.61,0,0,0,.83.57,105.45,105.45,0,0,0,29.57-17.53,110.76,110.76,0,0,0,20.24-22.48,111.26,111.26,0,0,0,12.2-23.26.6.6,0,0,0-.57-.82Z" />
    <path class="cls-1"
        d="M489.57,26.29a1.21,1.21,0,0,1,1.11.72,101.73,101.73,0,0,0,8.75,15.6,97.4,97.4,0,0,0,17.83,19.81A92.51,92.51,0,0,0,538.89,76a1.24,1.24,0,0,1,.73,1.12V89.81a.61.61,0,0,1-.83.57,105.65,105.65,0,0,1-29.58-17.53A110.76,110.76,0,0,1,489,50.37a111.1,111.1,0,0,1-12.19-23.26.6.6,0,0,1,.57-.82Z" />
    <path class="cls-1" d="M204,60.21h-61.3V47.55h60.08A1.22,1.22,0,0,1,204,48.77Z" />
    <path class="cls-1"
        d="M205.38,38.6H117a1.21,1.21,0,0,1-1.21-1.21V26h89.59a1.21,1.21,0,0,1,1.21,1.22V37.39A1.21,1.21,0,0,1,205.38,38.6Z" />
    <path class="cls-1"
        d="M115.79,5.19h13.39a0,0,0,0,1,0,0V26.76A1.22,1.22,0,0,1,128,28H117a1.22,1.22,0,0,1-1.22-1.22V5.19A0,0,0,0,1,115.79,5.19Z"
        transform="translate(244.96 33.17) rotate(180)" />
    <path class="cls-1"
        d="M188.54,60.21a71.47,71.47,0,0,1-10,11.25,83.44,83.44,0,0,1-19.16,13.16,100.54,100.54,0,0,1-24.62,8.44,1.21,1.21,0,0,0-1,1.19v11.16a1.22,1.22,0,0,0,1.43,1.2,114.21,114.21,0,0,0,30.53-10.24,96.67,96.67,0,0,0,22.29-15.55C199.32,70.29,203.83,60.64,204,60.21Z" />
    <path class="cls-1"
        d="M181,84.62a83.72,83.72,0,0,1-19.17-13.16c-1.93-1.78-3.64-3.54-5.12-5.2a1.21,1.21,0,0,0-.89-.4H139.66a83.32,83.32,0,0,0,12.69,15,96.24,96.24,0,0,0,22.29,15.55,114.09,114.09,0,0,0,30.53,10.24,1.21,1.21,0,0,0,1.42-1.2V94.25a1.2,1.2,0,0,0-1-1.19A100.26,100.26,0,0,1,181,84.62Z" />
    <path class="cls-1"
        d="M194.56,4H183.07a1.29,1.29,0,0,0-1.25,1.63l4.11,15.72a1.31,1.31,0,0,0,1.26,1h11.48a1.3,1.3,0,0,0,1.26-1.63L195.81,5A1.29,1.29,0,0,0,194.56,4Z" />
    <path class="cls-1"
        d="M145.44.74a1.19,1.19,0,0,0-1.2,1.18,157.21,157.21,0,0,1-4.4,35,125,125,0,0,1-12,31.42,91.09,91.09,0,0,1-15,20,1.14,1.14,0,0,0-.35.83v14.73a1.21,1.21,0,0,0,2,1A101.08,101.08,0,0,0,139.62,74.7a138.52,138.52,0,0,0,13.33-35,168.14,168.14,0,0,0,4.69-37.79,1.2,1.2,0,0,0-1.2-1.2Z" />
    <rect class="cls-1" x="227.02" y="31.76" width="95.9" height="12.33" rx="1.23" />
    <path class="cls-1"
        d="M296.45,21.69H235.57a1.26,1.26,0,0,1-1.3-1.23V10.6a1.26,1.26,0,0,1,1.3-1.23h60.88a1.26,1.26,0,0,1,1.29,1.23v9.86A1.26,1.26,0,0,1,296.45,21.69Z" />
    <path class="cls-1"
        d="M263.14,0H276a0,0,0,0,1,0,0V39.66a1.23,1.23,0,0,1-1.23,1.23H264.37a1.23,1.23,0,0,1-1.23-1.23V0a0,0,0,0,1,0,0Z"
        transform="translate(539.1 40.89) rotate(180)" />
    <rect class="cls-1" x="244.33" y="52.8" width="65.5" height="12.33" />
    <rect class="cls-1" x="244.33" y="74.52" width="65.5" height="10.39" />
    <rect class="cls-1" x="244.33" y="94.3" width="65.5" height="12.33" />
    <path class="cls-1"
        d="M240.27,52.8H252a1.26,1.26,0,0,1,1.26,1.26v52.57a0,0,0,0,1,0,0H240.27a0,0,0,0,1,0,0V52.8A0,0,0,0,1,240.27,52.8Z"
        transform="translate(493.5 159.43) rotate(180)" />
    <path class="cls-1"
        d="M303.69,52.8h11.69a0,0,0,0,1,0,0v53.83a0,0,0,0,1,0,0H303.69a1.26,1.26,0,0,1-1.26-1.26V54.06a1.26,1.26,0,0,1,1.26-1.26Z"
        transform="translate(617.81 159.43) rotate(180)" />
    <path class="cls-1"
        d="M306.45,9.37a1.21,1.21,0,0,0-1.21,1.06c-.15,1.25-.35,2.75-.63,4.47A124.9,124.9,0,0,1,299,36.2l12.76,4.57a132.09,132.09,0,0,0,7.05-30.07,1.2,1.2,0,0,0-1.21-1.33Z" />
    <path class="cls-1"
        d="M257.59,35.26l0,0a45.53,45.53,0,0,1-7.77,9.33,73.78,73.78,0,0,1-20,13.31A1.19,1.19,0,0,0,229.2,59V71.2a1.12,1.12,0,0,0,1.54,1c28-11.15,38.33-29.72,38.77-30.54Z" />
</svg>